999
dxfrw 0.6.1
  0
SECTION
  2
HEADER
  9
$ACADVER
  1
AC1021
  9
$DWGCODEPAGE
  3
ANSI_1252
  9
$INSBASE
 10
0
 20
0
 30
0
  9
$EXTMIN
 10
-200
 20
-443.3333333333333
 30
0
  9
$EXTMAX
 10
900.7629394529999
 20
430
 30
0
  9
$LIMMIN
 10
0
 20
0
  9
$LIMMAX
 10
420
 20
297
  9
$ORTHOMODE
 70
    0
  9
$REGENMODE
 70
    1
  9
$FILLMODE
 70
    1
  9
$QTEXTMODE
 70
    0
  9
$MIRRTEXT
 70
    0
  9
$LTSCALE
 40
1
  9
$ATTMODE
 70
    0
  9
$TEXTSIZE
 40
2.5
  9
$TRACEWID
 40
15.68
  9
$TEXTSTYLE
  7
STANDARD
  9
$CLAYER
  8
green dimensions
  9
$CELTYPE
  7
BYLAYER
  9
$CECOLOR
 62
  256
  9
$CELTSCALE
 40
1
  9
$DISPSILH
 70
    0
  9
$DIMSCALE
 40
1
  9
$DIMASZ
 40
4
  9
$DIMEXO
 40
5
  9
$DIMDLI
 40
3.75
  9
$DIMRND
 40
0
  9
$DIMDLE
 40
0
  9
$DIMEXE
 40
5
  9
$DIMTP
 40
0
  9
$DIMTM
 40
0
  9
$DIMTXT
 40
5
  9
$DIMCEN
 40
2.5
  9
$DIMTSZ
 40
0
  9
$DIMTOL
 70
    0
  9
$DIMLIM
 70
    0
  9
$DIMTIH
 70
    0
  9
$DIMTOH
 70
    0
  9
$DIMSE1
 70
    0
  9
$DIMSE2
 70
    0
  9
$DIMTAD
 70
    1
  9
$DIMZIN
 70
    8
  9
$DIMBLK
  1

  9
$DIMASO
 70
    1
  9
$DIMSHO
 70
    1
  9
$DIMPOST
  1

  9
$DIMAPOST
  1

  9
$DIMALT
 70
    0
  9
$DIMALTD
 70
    3
  9
$DIMALTF
 40
0.03937
  9
$DIMLFAC
 40
1
  9
$DIMTOFL
 70
    1
  9
$DIMTVP
 40
0
  9
$DIMTIX
 70
    0
  9
$DIMSOXD
 70
    0
  9
$DIMSAH
 70
    0
  9
$DIMBLK1
  1

  9
$DIMBLK2
  1

  9
$DIMSTYLE
  2
STANDARD
  9
$DIMCLRD
 70
    0
  9
$DIMCLRE
 70
    0
  9
$DIMCLRT
 70
    0
  9
$DIMTFAC
 40
1
  9
$DIMGAP
 40
0.025
  9
$DIMJUST
 70
    0
  9
$DIMSD1
 70
    0
  9
$DIMSD2
 70
    0
  9
$DIMTOLJ
 70
    0
  9
$DIMTZIN
 70
    8
  9
$DIMALTZ
 70
    0
  9
$DIMALTTZ
 70
    0
  9
$DIMUPT
 70
    0
  9
$DIMDEC
 70
    4
  9
$DIMTDEC
 70
    2
  9
$DIMALTU
 70
    2
  9
$DIMALTTD
 70
    3
  9
$DIMTXSTY
  7
standard
  9
$DIMAUNIT
 70
    0
  9
$DIMADEC
 70
    0
  9
$DIMALTRND
 40
0
  9
$DIMAZIN
 70
    0
  9
$DIMDSEP
 70
    0
  9
$DIMATFIT
 70
    3
  9
$DIMFRAC
 70
    0
  9
$DIMLDRBLK
  1
STANDARD
  9
$DIMLUNIT
 70
    2
  9
$DIMLWD
 70
   -2
  9
$DIMLWE
 70
   -2
  9
$DIMTMOVE
 70
    0
  9
$DIMFXL
 40
0.04
  9
$DIMFXLON
 70
    0
  9
$DIMJOGANG
 40
0.7854
  9
$DIMTFILL
 70
    0
  9
$DIMTFILLCLR
 70
    0
  9
$DIMARCSYM
 70
    0
  9
$DIMLTYPE
  6

  9
$DIMLTEX1
  6

  9
$DIMLTEX2
  6

  9
$LUNITS
 70
    2
  9
$LUPREC
 70
    4
  9
$SKETCHINC
 40
1
  9
$FILLETRAD
 40
0
  9
$AUNITS
 70
    0
  9
$AUPREC
 70
    2
  9
$MENU
  1
.
  9
$ELEVATION
 40
0
  9
$PELEVATION
 40
0
  9
$THICKNESS
 40
0
  9
$LIMCHECK
 70
    0
  9
$CHAMFERA
 40
0
  9
$CHAMFERB
 40
0
  9
$CHAMFERC
 40
0
  9
$CHAMFERD
 40
0
  9
$SKPOLY
 70
    0
  9
$USRTIMER
 70
    1
  9
$ANGBASE
 50
0
  9
$ANGDIR
 70
    0
  9
$PDMODE
 70
   34
  9
$PDSIZE
 40
0
  9
$PLINEWID
 40
0
  9
$SPLFRAME
 70
    0
  9
$SPLINETYPE
 70
    2
  9
$SPLINESEGS
 70
    8
  9
$HANDSEED
  5
20000
  9
$SURFTAB1
 70
    6
  9
$SURFTAB2
 70
    6
  9
$SURFTYPE
 70
    6
  9
$SURFU
 70
    6
  9
$SURFV
 70
    6
  9
$UCSBASE
  2

  9
$UCSNAME
  2

  9
$UCSORG
 10
0
 20
0
 30
0
  9
$UCSXDIR
 10
1
 20
0
 30
0
  9
$UCSYDIR
 10
0
 20
1
 30
0
  9
$UCSORTHOREF
  2

  9
$UCSORTHOVIEW
 70
    0
  9
$UCSORGTOP
 10
0
 20
0
 30
0
  9
$UCSORGBOTTOM
 10
0
 20
0
 30
0
  9
$UCSORGLEFT
 10
0
 20
0
 30
0
  9
$UCSORGRIGHT
 10
0
 20
0
 30
0
  9
$UCSORGFRONT
 10
0
 20
0
 30
0
  9
$UCSORGBACK
 10
0
 20
0
 30
0
  9
$PUCSBASE
  2

  9
$PUCSNAME
  2

  9
$PUCSORG
 10
0
 20
0
 30
0
  9
$PUCSXDIR
 10
1
 20
0
 30
0
  9
$PUCSYDIR
 10
0
 20
1
 30
0
  9
$PUCSORTHOREF
  2

  9
$PUCSORTHOVIEW
 70
    0
  9
$PUCSORGTOP
 10
0
 20
0
 30
0
  9
$PUCSORGBOTTOM
 10
0
 20
0
 30
0
  9
$PUCSORGLEFT
 10
0
 20
0
 30
0
  9
$PUCSORGRIGHT
 10
0
 20
0
 30
0
  9
$PUCSORGFRONT
 10
0
 20
0
 30
0
  9
$PUCSORGBACK
 10
0
 20
0
 30
0
  9
$USERI1
 70
    0
  9
$USERI2
 70
    0
  9
$USERI3
 70
    0
  9
$USERI4
 70
    0
  9
$USERI5
 70
    0
  9
$USERR1
 40
0
  9
$USERR2
 40
0
  9
$USERR3
 40
0
  9
$USERR4
 40
0
  9
$USERR5
 40
0
  9
$WORLDVIEW
 70
    1
  9
$SHADEDGE
 70
    3
  9
$SHADEDIF
 70
   70
  9
$TILEMODE
 70
    1
  9
$MAXACTVP
 70
   64
  9
$PINSBASE
 10
0
 20
0
 30
0
  9
$PLIMCHECK
 70
    0
  9
$PEXTMIN
 10
0
 20
0
 30
0
  9
$PEXTMAX
 10
0
 20
0
 30
0
  9
$GRIDMODE
 70
    1
  9
$SNAPSTYLE
 70
    0
  9
$GRIDUNIT
 10
0
 20
0
  9
$PLIMMIN
 10
0
 20
0
  9
$PLIMMAX
 10
8.039862e-07
 20
1.040511e-06
  9
$UNITMODE
 70
    0
  9
$VISRETAIN
 70
    1
  9
$PLINEGEN
 70
    0
  9
$PSLTSCALE
 70
    1
  9
$TREEDEPTH
 70
 3020
  9
$CMLSTYLE
  2
Standard
  9
$CMLJUST
 70
    0
  9
$CMLSCALE
 40
20
  9
$PROXYGRAPHICS
 70
    1
  9
$MEASUREMENT
 70
    1
  9
$CELWEIGHT
370
   -1
  9
$ENDCAPS
280
    0
  9
$JOINSTYLE
280
    0
  9
$LWDISPLAY
290
    0
  9
$INSUNITS
 70
    1
  9
$HYPERLINKBASE
  1

  9
$STYLESHEET
  1

  9
$XEDIT
290
    1
  9
$CEPSNTYPE
380
    0
  9
$PSTYLEMODE
290
    1
  9
$EXTNAMES
290
    1
  9
$PSVPSCALE
 40
1
  9
$OLESTARTUP
290
    0
  9
$SORTENTS
280
  127
  9
$INDEXCTL
280
    0
  9
$HIDETEXT
280
    1
  9
$XCLIPFRAME
290
    0
  9
$HALOGAP
280
    0
  9
$OBSCOLOR
 70
  257
  9
$OBSLTYPE
280
    0
  9
$INTERSECTIONDISPLAY
280
    0
  9
$INTERSECTIONCOLOR
 70
  257
  9
$DIMASSOC
280
    0
  9
$PROJECTNAME
  1

  9
$CAMERADISPLAY
290
    0
  9
$LENSLENGTH
 40
50
  9
$CAMERAHEIGHT
 40
0
  9
$STEPSPERSEC
 40
2
  9
$STEPSIZE
 40
50
  9
$3DDWFPREC
 40
2
  9
$PSOLWIDTH
 40
5
  9
$PSOLHEIGHT
 40
80
  9
$LOFTANG1
 40
1.570796326794897
  9
$LOFTANG2
 40
1.570796326794897
  9
$LOFTMAG1
 40
0
  9
$LOFTMAG2
 40
0
  9
$LOFTPARAM
 70
    7
  9
$LOFTNORMALS
280
    1
  9
$LATITUDE
 40
1
  9
$LONGITUDE
 40
1
  9
$NORTHDIRECTION
 40
0
  9
$TIMEZONE
 70
-8000
  9
$LIGHTGLYPHDISPLAY
280
    1
  9
$TILEMODELIGHTSYNCH
280
    1
  9
$SOLIDHIST
280
    1
  9
$SHOWHIST
280
    1
  9
$DWFFRAME
280
    2
  9
$DGNFRAME
280
    0
  9
$REALWORLDSCALE
290
    1
  9
$INTERFERECOLOR
 62
    1
  9
$CSHADOW
280
    0
  9
$SHADOWPLANELOCATION
 40
0
  0
ENDSEC
  0
SECTION
  2
CLASSES
  0
ENDSEC
  0
SECTION
  2
TABLES
  0
TABLE
  2
VPORT
  5
8
330
0
100
AcDbSymbolTable
 70
    1
  0
VPORT
  5
31
330
2
100
AcDbSymbolTableRecord
100
AcDbViewportTableRecord
  2
*ACTIVE
 70
    0
 10
0
 20
0
 11
1
 21
1
 12
294.4813603933249
 22
-53.12333195833703
 13
0
 23
0
 14
10
 24
10
 15
10
 25
10
 16
0
 26
0
 36
1
 17
0
 27
0
 37
0
 40
431.1280813266196
 41
1.605413105413105
 42
50
 43
0
 44
0
 50
0
 51
0
 71
    0
 72
  100
 73
    1
 74
    3
 75
    0
 76
    1
 77
    0
 78
    0
281
    0
 65
    1
110
0
120
0
130
0
111
1
121
0
131
0
112
0
122
1
132
0
 79
    0
146
0
348
10020
 60
    7
 61
    5
292
1
282
    1
141
0
142
0
 63
  250
421
3358443
  0
ENDTAB
  0
TABLE
  2
LTYPE
  5
5
330
0
100
AcDbSymbolTable
 70
    4
  0
LTYPE
  5
14
330
5
100
AcDbSymbolTableRecord
100
AcDbLinetypeTableRecord
  2
ByBlock
 70
    0
  3

 72
   65
 73
    0
 40
0
  0
LTYPE
  5
15
330
5
100
AcDbSymbolTableRecord
100
AcDbLinetypeTableRecord
  2
ByLayer
 70
    0
  3

 72
   65
 73
    0
 40
0
  0
LTYPE
  5
16
330
5
100
AcDbSymbolTableRecord
100
AcDbLinetypeTableRecord
  2
Continuous
 70
    0
  3
Solid line
 72
   65
 73
    0
 40
0
  0
LTYPE
  5
32
330
5
100
AcDbSymbolTableRecord
100
AcDbLinetypeTableRecord
  2
DOT
 70
    0
  3
Dot . . . . . . . . . . . . . . . . . . . . . .
 72
   65
 73
    2
 40
6.35
 49
0
 74
    0
 49
-6.35
 74
    0
  0
LTYPE
  5
33
330
5
100
AcDbSymbolTableRecord
100
AcDbLinetypeTableRecord
  2
DOTTINY
 70
    0
  3
Dot (.15x) .....................................
 72
   65
 73
    2
 40
0.9525
 49
0
 74
    0
 49
-0.9525
 74
    0
  0
LTYPE
  5
34
330
5
100
AcDbSymbolTableRecord
100
AcDbLinetypeTableRecord
  2
DOT2
 70
    0
  3
Dot (.5x) .....................................
 72
   65
 73
    2
 40
3.175
 49
0
 74
    0
 49
-3.175
 74
    0
  0
LTYPE
  5
35
330
5
100
AcDbSymbolTableRecord
100
AcDbLinetypeTableRecord
  2
DOTX2
 70
    0
  3
Dot (2x) .  .  .  .  .  .  .  .  .  .  .  .  .
 72
   65
 73
    2
 40
12.7
 49
0
 74
    0
 49
-12.7
 74
    0
  0
LTYPE
  5
36
330
5
100
AcDbSymbolTableRecord
100
AcDbLinetypeTableRecord
  2
DASHED
 70
    0
  3
Dashed _ _ _ _ _ _ _ _ _ _ _ _ _ _ _ _ _
 72
   65
 73
    2
 40
19.05
 49
12.7
 74
    0
 49
-6.35
 74
    0
  0
LTYPE
  5
37
330
5
100
AcDbSymbolTableRecord
100
AcDbLinetypeTableRecord
  2
DASHEDTINY
 70
    0
  3
Dashed (.15x) _ _ _ _ _ _ _ _ _ _ _ _ _ _ _ _ _
 72
   65
 73
    2
 40
2.8575
 49
1.905
 74
    0
 49
-0.9525
 74
    0
  0
LTYPE
  5
38
330
5
100
AcDbSymbolTableRecord
100
AcDbLinetypeTableRecord
  2
DASHED2
 70
    0
  3
Dashed (.5x) _ _ _ _ _ _ _ _ _ _ _ _ _ _ _ _ _
 72
   65
 73
    2
 40
9.524999999999999
 49
6.35
 74
    0
 49
-3.175
 74
    0
  0
LTYPE
  5
39
330
5
100
AcDbSymbolTableRecord
100
AcDbLinetypeTableRecord
  2
DASHEDX2
 70
    0
  3
Dashed (2x) ____  ____  ____  ____  ____  ___
 72
   65
 73
    2
 40
38.09999999999999
 49
25.4
 74
    0
 49
-12.7
 74
    0
  0
LTYPE
  5
3A
330
5
100
AcDbSymbolTableRecord
100
AcDbLinetypeTableRecord
  2
DASHDOT
 70
    0
  3
Dash dot __ . __ . __ . __ . __ . __ . __ . __
 72
   65
 73
    4
 40
25.4
 49
12.7
 74
    0
 49
-6.35
 74
    0
 49
0
 74
    0
 49
-6.35
 74
    0
  0
LTYPE
  5
3B
330
5
100
AcDbSymbolTableRecord
100
AcDbLinetypeTableRecord
  2
DASHDOTTINY
 70
    0
  3
Dash dot (.15x) _._._._._._._._._._._._._._._.
 72
   65
 73
    4
 40
3.81
 49
1.905
 74
    0
 49
-0.9525
 74
    0
 49
0
 74
    0
 49
-0.9525
 74
    0
  0
LTYPE
  5
3C
330
5
100
AcDbSymbolTableRecord
100
AcDbLinetypeTableRecord
  2
DASHDOT2
 70
    0
  3
Dash dot (.5x) _._._._._._._._._._._._._._._.
 72
   65
 73
    4
 40
12.7
 49
6.35
 74
    0
 49
-3.175
 74
    0
 49
0
 74
    0
 49
-3.175
 74
    0
  0
LTYPE
  5
3D
330
5
100
AcDbSymbolTableRecord
100
AcDbLinetypeTableRecord
  2
DASHDOTX2
 70
    0
  3
Dash dot (2x) ____  .  ____  .  ____  .  ___
 72
   65
 73
    4
 40
50.8
 49
25.4
 74
    0
 49
-12.7
 74
    0
 49
0
 74
    0
 49
-12.7
 74
    0
  0
LTYPE
  5
3E
330
5
100
AcDbSymbolTableRecord
100
AcDbLinetypeTableRecord
  2
DIVIDE
 70
    0
  3
Divide ____ . . ____ . . ____ . . ____ . . ____
 72
   65
 73
    6
 40
31.75
 49
12.7
 74
    0
 49
-6.35
 74
    0
 49
0
 74
    0
 49
-6.35
 74
    0
 49
0
 74
    0
 49
-6.35
 74
    0
  0
LTYPE
  5
3F
330
5
100
AcDbSymbolTableRecord
100
AcDbLinetypeTableRecord
  2
DIVIDETINY
 70
    0
  3
Divide (.15x) __..__..__..__..__..__..__..__.._
 72
   65
 73
    6
 40
4.7625
 49
1.905
 74
    0
 49
-0.9525
 74
    0
 49
0
 74
    0
 49
-0.9525
 74
    0
 49
0
 74
    0
 49
-0.9525
 74
    0
  0
LTYPE
  5
40
330
5
100
AcDbSymbolTableRecord
100
AcDbLinetypeTableRecord
  2
DIVIDE2
 70
    0
  3
Divide (.5x) __..__..__..__..__..__..__..__.._
 72
   65
 73
    6
 40
15.875
 49
6.35
 74
    0
 49
-3.175
 74
    0
 49
0
 74
    0
 49
-3.175
 74
    0
 49
0
 74
    0
 49
-3.175
 74
    0
  0
LTYPE
  5
41
330
5
100
AcDbSymbolTableRecord
100
AcDbLinetypeTableRecord
  2
DIVIDEX2
 70
    0
  3
Divide (2x) ________  .  .  ________  .  .  _
 72
   65
 73
    6
 40
63.5
 49
25.4
 74
    0
 49
-12.7
 74
    0
 49
0
 74
    0
 49
-12.7
 74
    0
 49
0
 74
    0
 49
-12.7
 74
    0
  0
LTYPE
  5
42
330
5
100
AcDbSymbolTableRecord
100
AcDbLinetypeTableRecord
  2
BORDER
 70
    0
  3
Border __ __ . __ __ . __ __ . __ __ . __ __ .
 72
   65
 73
    6
 40
44.45
 49
12.7
 74
    0
 49
-6.35
 74
    0
 49
12.7
 74
    0
 49
-6.35
 74
    0
 49
0
 74
    0
 49
-6.35
 74
    0
  0
LTYPE
  5
43
330
5
100
AcDbSymbolTableRecord
100
AcDbLinetypeTableRecord
  2
BORDERTINY
 70
    0
  3
Border (.15x) __.__.__.__.__.__.__.__.__.__.__.
 72
   65
 73
    6
 40
6.6675
 49
1.905
 74
    0
 49
-0.9525
 74
    0
 49
1.905
 74
    0
 49
-0.9525
 74
    0
 49
0
 74
    0
 49
-0.9525
 74
    0
  0
LTYPE
  5
44
330
5
100
AcDbSymbolTableRecord
100
AcDbLinetypeTableRecord
  2
BORDER2
 70
    0
  3
Border (.5x) __.__.__.__.__.__.__.__.__.__.__.
 72
   65
 73
    6
 40
22.225
 49
6.35
 74
    0
 49
-3.175
 74
    0
 49
6.35
 74
    0
 49
-3.175
 74
    0
 49
0
 74
    0
 49
-3.175
 74
    0
  0
LTYPE
  5
45
330
5
100
AcDbSymbolTableRecord
100
AcDbLinetypeTableRecord
  2
BORDERX2
 70
    0
  3
Border (2x) ____  ____  .  ____  ____  .  ___
 72
   65
 73
    6
 40
88.89999999999999
 49
25.4
 74
    0
 49
-12.7
 74
    0
 49
25.4
 74
    0
 49
-12.7
 74
    0
 49
0
 74
    0
 49
-12.7
 74
    0
  0
LTYPE
  5
46
330
5
100
AcDbSymbolTableRecord
100
AcDbLinetypeTableRecord
  2
CENTER
 70
    0
  3
Center ____ _ ____ _ ____ _ ____ _ ____ _ ____
 72
   65
 73
    4
 40
50.8
 49
31.75
 74
    0
 49
-6.35
 74
    0
 49
6.35
 74
    0
 49
-6.35
 74
    0
  0
LTYPE
  5
47
330
5
100
AcDbSymbolTableRecord
100
AcDbLinetypeTableRecord
  2
CENTERTINY
 70
    0
  3
Center (.15x) ___ _ ___ _ ___ _ ___ _ ___ _ ___
 72
   65
 73
    4
 40
7.619999999999999
 49
4.7625
 74
    0
 49
-0.9525
 74
    0
 49
0.9525
 74
    0
 49
-0.9525
 74
    0
  0
LTYPE
  5
48
330
5
100
AcDbSymbolTableRecord
100
AcDbLinetypeTableRecord
  2
CENTER2
 70
    0
  3
Center (.5x) ___ _ ___ _ ___ _ ___ _ ___ _ ___
 72
   65
 73
    4
 40
28.575
 49
19.05
 74
    0
 49
-3.175
 74
    0
 49
3.175
 74
    0
 49
-3.175
 74
    0
  0
LTYPE
  5
49
330
5
100
AcDbSymbolTableRecord
100
AcDbLinetypeTableRecord
  2
CENTERX2
 70
    0
  3
Center (2x) ________  __  ________  __  _____
 72
   65
 73
    4
 40
101.6
 49
63.5
 74
    0
 49
-12.7
 74
    0
 49
12.7
 74
    0
 49
-12.7
 74
    0
  0
ENDTAB
  0
TABLE
  2
LAYER
  5
2
330
0
100
AcDbSymbolTable
 70
    1
  0
LAYER
  5
10
330
2
100
AcDbSymbolTableRecord
100
AcDbLayerTableRecord
  2
0
 70
    0
 62
    7
  6
CONTINUOUS
370
    0
390
F
  0
LAYER
  5
4A
330
2
100
AcDbSymbolTableRecord
100
AcDbLayerTableRecord
  2
arrow
 70
    0
 62
    7
  6
CONTINUOUS
370
    0
390
F
  0
LAYER
  5
4B
330
2
100
AcDbSymbolTableRecord
100
AcDbLayerTableRecord
  2
blue wheel
 70
    0
 62
    5
  6
CONTINUOUS
370
    0
390
F
  0
LAYER
  5
4C
330
2
100
AcDbSymbolTableRecord
100
AcDbLayerTableRecord
  2
dashed
 70
    0
 62
    7
  6
DASHED2
370
    0
390
F
  0
LAYER
  5
4D
330
2
100
AcDbSymbolTableRecord
100
AcDbLayerTableRecord
  2
green dimensions
 70
    0
 62
   96
420
32768
  6
CONTINUOUS
370
    0
390
F
  0
ENDTAB
  0
TABLE
  2
STYLE
  5
3
330
0
100
AcDbSymbolTable
 70
    3
  0
STYLE
  5
4E
330
2
100
AcDbSymbolTableRecord
100
AcDbTextStyleTableRecord
  2
iso
 70
    0
 40
0
 41
1
 50
0
 71
    0
 42
1
  3
iso
  4

  0
STYLE
  5
4F
330
2
100
AcDbSymbolTableRecord
100
AcDbTextStyleTableRecord
  2
Standard
 70
    0
 40
0
 41
1
 50
0
 71
    0
 42
1
  3
txt
  4

  0
ENDTAB
  0
TABLE
  2
VIEW
  5
6
330
0
100
AcDbSymbolTable
 70
    0
  0
ENDTAB
  0
TABLE
  2
UCS
  5
7
330
0
100
AcDbSymbolTable
 70
    0
  0
ENDTAB
  0
TABLE
  2
APPID
  5
9
330
0
100
AcDbSymbolTable
 70
    1
  0
APPID
  5
12
330
9
100
AcDbSymbolTableRecord
100
AcDbRegAppTableRecord
  2
ACAD
 70
    0
  0
APPID
  5
50
330
9
100
AcDbSymbolTableRecord
100
AcDbRegAppTableRecord
  2
LibreCad
 70
    0
  0
ENDTAB
  0
TABLE
  2
DIMSTYLE
  5
A
330
0
100
AcDbSymbolTable
 70
    1
100
AcDbDimStyleTable
 71
    1
  0
DIMSTYLE
105
51
330
A
100
AcDbSymbolTableRecord
100
AcDbDimStyleTableRecord
  2
Standard
 70
    0
 40
1
 41
4
 42
5
 43
0.38
 44
5
 45
0
 46
0
 47
0
 48
0
140
5
141
0.09
142
0
143
25.4
144
1
145
0
146
1
147
0.025
148
0
 71
    0
 72
    0
 73
    0
 74
    1
 75
    0
 76
    0
 77
    0
 78
    0
 79
    0
170
    0
171
    2
172
    0
173
    0
174
    0
175
    0
176
    0
177
    0
178
    0
179
    0
271
    4
272
    4
273
    2
274
    2
275
    0
276
    0
277
    2
278
   46
279
    0
280
    0
281
    0
282
    0
283
    1
284
    0
285
    0
286
    0
288
    0
289
    3
340
Standard
341

371
   -2
372
   -2
  0
ENDTAB
  0
TABLE
  2
BLOCK_RECORD
  5
1
330
0
100
AcDbSymbolTable
 70
    2
  0
BLOCK_RECORD
  5
1F
330
1
100
AcDbSymbolTableRecord
100
AcDbBlockTableRecord
  2
*Model_Space
 70
    0
280
    1
281
    0
  0
BLOCK_RECORD
  5
1E
330
1
100
AcDbSymbolTableRecord
100
AcDbBlockTableRecord
  2
*Paper_Space
 70
    0
280
    1
281
    0
  0
BLOCK_RECORD
  5
52
330
1
100
AcDbSymbolTableRecord
100
AcDbBlockTableRecord
  2
*D3
 70
    0
280
    1
281
    0
  0
BLOCK_RECORD
  5
55
330
1
100
AcDbSymbolTableRecord
100
AcDbBlockTableRecord
  2
*D2
 70
    0
280
    1
281
    0
  0
BLOCK_RECORD
  5
58
330
1
100
AcDbSymbolTableRecord
100
AcDbBlockTableRecord
  2
*D1
 70
    0
280
    1
281
    0
  0
ENDTAB
  0
ENDSEC
  0
SECTION
  2
BLOCKS
  0
BLOCK
  5
20
330
1F
100
AcDbEntity
  8
0
100
AcDbBlockBegin
  2
*Model_Space
 70
    0
 10
0
 20
0
 30
0
  3
*Model_Space
  1

  0
ENDBLK
  5
21
330
1F
100
AcDbEntity
  8
0
100
AcDbBlockEnd
  0
BLOCK
  5
1C
330
1B
100
AcDbEntity
  8
0
100
AcDbBlockBegin
  2
*Paper_Space
 70
    0
 10
0
 20
0
 30
0
  3
*Paper_Space
  1

  0
ENDBLK
  5
1D
330
1F
100
AcDbEntity
  8
0
100
AcDbBlockEnd
  0
BLOCK
  5
53
330
52
100
AcDbEntity
  8
0
100
AcDbBlockBegin
  2
*D3
 70
    1
 10
0
 20
0
  3
*D3
  1

  0
LINE
  5
5B
100
AcDbEntity
  8
green dimensions
  6
CONTINUOUS
 62
    7
370
    0
100
AcDbLine
 10
39.84596273282494
 20
-392.221118011494
 11
30
 21
-380
  0
SOLID
  5
5C
100
AcDbEntity
  8
green dimensions
  6
CONTINUOUS
 62
    7
370
    0
100
AcDbTrace
 10
39.84596273282494
 20
-392.221118011494
 30
0
 11
36.81779427747598
 21
-389.5241149207005
 31
0
 12
37.85513219985894
 22
-388.6883820102153
 32
0
 13
37.85513219985894
 23
-388.6883820102153
 33
0
  0
LINE
  5
5D
100
AcDbEntity
  8
green dimensions
  6
CONTINUOUS
 62
    7
370
    0
100
AcDbLine
 10
30
 20
-380
 11
0
 21
-380
  0
ENDBLK
  5
54
330
52
100
AcDbEntity
  8
0
100
AcDbBlockEnd
  0
BLOCK
  5
56
330
55
100
AcDbEntity
  8
0
100
AcDbBlockBegin
  2
*D2
 70
    1
 10
0
 20
0
  3
*D2
  1

  0
LINE
  5
5E
100
AcDbEntity
  8
green dimensions
  6
CONTINUOUS
 62
    7
370
    0
100
AcDbLine
 10
110
 20
-370
 11
90
 21
-350
  0
SOLID
  5
5F
100
AcDbEntity
  8
green dimensions
  6
CONTINUOUS
 62
    7
370
    0
100
AcDbTrace
 10
110
 20
-370
 30
0
 11
106.7006005481897
 21
-367.642545202318
 31
0
 12
107.642545202318
 22
-366.7006005481896
 32
0
 13
107.642545202318
 23
-366.7006005481896
 33
0
  0
LINE
  5
60
100
AcDbEntity
  8
green dimensions
  6
CONTINUOUS
 62
    7
370
    0
100
AcDbLine
 10
90
 20
-350
 11
40
 21
-350
  0
ENDBLK
  5
57
330
55
100
AcDbEntity
  8
0
100
AcDbBlockEnd
  0
BLOCK
  5
59
330
58
100
AcDbEntity
  8
0
100
AcDbBlockBegin
  2
*D1
 70
    1
 10
0
 20
0
  3
*D1
  1

  0
LINE
  5
61
100
AcDbEntity
  8
green dimensions
  6
ByBlock
 62
    0
370
   -2
100
AcDbLine
 10
100
 20
-420
 11
450
 21
-420
  0
SOLID
  5
62
100
AcDbEntity
  8
green dimensions
  6
ByBlock
 62
    0
370
   -2
100
AcDbTrace
 10
100
 20
-420
 30
0
 11
104
 21
-419.3339445475635
 31
0
 12
104
 22
-420.6660554524365
 32
0
 13
104
 23
-420.6660554524365
 33
0
  0
SOLID
  5
63
100
AcDbEntity
  8
green dimensions
  6
ByBlock
 62
    0
370
   -2
100
AcDbTrace
 10
450
 20
-420
 30
0
 11
446
 21
-420.6660554524365
 31
0
 12
446
 22
-419.3339445475635
 32
0
 13
446
 23
-419.3339445475635
 33
0
  0
MTEXT
  5
64
100
AcDbEntity
  8
green dimensions
  6
CONTINUOUS
 62
    0
370
   -2
100
AcDbMText
 10
275
 20
-417.475
 30
0
 40
5
 41
27.22222222222285
 71
    5
 72
    1
  1
350.0000
  7
standard
210
0
220
0
230
1
 50
0
 73
    2
 44
1
  0
LINE
  5
65
100
AcDbEntity
  8
green dimensions
  6
ByBlock
 62
    0
370
   -2
100
AcDbLine
 10
100
 20
-405
 11
100
 21
-425
  0
LINE
  5
66
100
AcDbEntity
  8
green dimensions
  6
ByBlock
 62
    0
370
   -2
100
AcDbLine
 10
450
 20
-405
 11
450
 21
-425
  0
ENDBLK
  5
5A
330
58
100
AcDbEntity
  8
0
100
AcDbBlockEnd
  0
ENDSEC
  0
SECTION
  2
ENTITIES
  0
MTEXT
  5
67
100
AcDbEntity
  8
0
  6
ByLayer
 62
  256
370
   -1
100
AcDbMText
 10
11.169433594
 20
-48.0651855469
 30
0
 40
10
 41
143.611116253984
 71
    7
 72
    1
  1
Menu Item Goes Here
  7
iso
210
0
220
0
230
1
 50
-59.99999999999999
 73
    2
 44
1
  0
MTEXT
  5
68
100
AcDbEntity
  8
0
  6
ByLayer
 62
  256
370
   -1
100
AcDbMText
 10
37.109375
 20
-41.9616699219
 30
0
 40
10
 41
143.611116253984
 71
    7
 72
    1
  1
Menu Item Goes Here
  7
iso
210
0
220
0
230
1
 50
-30
 73
    2
 44
1
  0
MTEXT
  5
69
100
AcDbEntity
  8
0
  6
ByLayer
 62
  256
370
   -1
100
AcDbMText
 10
50.07934570299994
 20
-16.7846679688
 30
0
 40
10
 41
143.611116253984
 71
    7
 72
    1
  1
Menu Item Goes Here
  7
iso
210
0
220
0
230
1
 50
0
 73
    2
 44
1
  0
MTEXT
  5
6A
100
AcDbEntity
  8
0
  6
ByLayer
 62
  256
370
   -1
100
AcDbMText
 10
50.842285156
 20
5.34057617188
 30
0
 40
10
 41
143.611116253984
 71
    7
 72
    1
  1
Menu Item Goes Here
  7
iso
210
0
220
0
230
1
 50
0
 73
    2
 44
1
  0
MTEXT
  5
6B
100
AcDbEntity
  8
0
  6
ByLayer
 62
  256
370
   -1
100
AcDbMText
 10
35.583496094
 20
32.0434570313
 30
0
 40
10
 41
143.611116253984
 71
    7
 72
    1
  1
Menu Item Goes Here
  7
iso
210
0
220
0
230
1
 50
30
 73
    2
 44
1
  0
MTEXT
  5
6C
100
AcDbEntity
  8
0
  6
ByLayer
 62
  256
370
   -1
100
AcDbMText
 10
14.98413085899995
 20
44.2504882813
 30
0
 40
10
 41
143.611116253984
 71
    7
 72
    1
  1
Menu Item Goes Here
  7
iso
210
0
220
0
230
1
 50
59.99999999999999
 73
    2
 44
1
  0
MTEXT
  5
6D
100
AcDbEntity
  8
0
  6
ByLayer
 62
  256
370
   -1
100
AcDbMText
 10
-20.111083984
 20
-46.5393066406
 30
0
 40
10
 41
143.611116253984
 71
    3
 72
    1
  1
Menu Item Goes Here
  7
iso
210
0
220
0
230
1
 50
59.99999999999999
 73
    2
 44
1
  0
MTEXT
  5
6E
100
AcDbEntity
  8
0
  6
ByLayer
 62
  256
370
   -1
100
AcDbMText
 10
-37.658691406
 20
-32.0434570313
 30
0
 40
10
 41
143.611116253984
 71
    3
 72
    1
  1
Menu Item Goes Here
  7
iso
210
0
220
0
230
1
 50
30
 73
    2
 44
1
  0
MTEXT
  5
6F
100
AcDbEntity
  8
0
  6
ByLayer
 62
  256
370
   -1
100
AcDbMText
 10
-50.628662109
 20
-9.1552734375
 30
0
 40
10
 41
143.611116253984
 71
    3
 72
    1
  1
Menu Item Goes Here
  7
iso
210
0
220
0
230
1
 50
0
 73
    2
 44
1
  0
MTEXT
  5
70
100
AcDbEntity
  8
0
  6
ByLayer
 62
  256
370
   -1
100
AcDbMText
 10
-50.628662109
 20
16.0217285156
 30
0
 40
10
 41
143.611116253984
 71
    3
 72
    1
  1
Menu Item Goes Here
  7
iso
210
0
220
0
230
1
 50
0
 73
    2
 44
1
  0
MTEXT
  5
71
100
AcDbEntity
  8
0
  6
ByLayer
 62
  256
370
   -1
100
AcDbMText
 10
-31.555175781
 20
38.1469726563
 30
0
 40
10
 41
143.611116253984
 71
    3
 72
    1
  1
Menu Item Goes Here
  7
iso
210
0
220
0
230
1
 50
-30
 73
    2
 44
1
  0
MTEXT
  5
72
100
AcDbEntity
  8
0
  6
ByLayer
 62
  256
370
   -1
100
AcDbMText
 10
-7.141113281000003
 20
46.5393066406
 30
0
 40
10
 41
143.611116253984
 71
    3
 72
    1
  1
Menu Item Goes Here
  7
iso
210
0
220
0
230
1
 50
-59.99999999999999
 73
    2
 44
1
  0
CIRCLE
  5
73
100
AcDbEntity
  8
0
  6
ByLayer
 62
  256
370
   -1
100
AcDbCircle
 10
0
 20
0
 40
41.23105625617661
  0
LINE
  5
74
100
AcDbEntity
  8
0
  6
ByLayer
 62
  256
370
   -1
100
AcDbLine
 10
-35.70714214271925
 20
-20.61552812807782
 11
-173.205080757
 21
-100
  0
LINE
  5
75
100
AcDbEntity
  8
0
  6
ByLayer
 62
  256
370
   -1
100
AcDbLine
 10
-200
 20
0
 11
-41.23105625617694
 21
5.684341886080801e-14
  0
LINE
  5
76
100
AcDbEntity
  8
0
  6
ByLayer
 62
  256
370
   -1
100
AcDbLine
 10
-35.70714214271925
 20
20.61552812807782
 11
-173.205080757
 21
100
  0
LINE
  5
77
100
AcDbEntity
  8
0
  6
ByLayer
 62
  256
370
   -1
100
AcDbLine
 10
-20.61552812807827
 20
35.70714214271993
 11
-100
 21
173.205080757
  0
LINE
  5
78
100
AcDbEntity
  8
0
  6
ByLayer
 62
  256
370
   -1
100
AcDbLine
 10
35.70714214271948
 20
20.61552812807799
 11
173.205080757
 21
100
  0
LINE
  5
79
100
AcDbEntity
  8
0
  6
ByLayer
 62
  256
370
   -1
100
AcDbLine
 10
35.70714214271948
 20
-20.61552812807799
 11
173.205080757
 21
-100
  0
LINE
  5
7A
100
AcDbEntity
  8
0
  6
ByLayer
 62
  256
370
   -1
100
AcDbLine
 10
20.61552812807827
 20
-35.70714214271992
 11
100
 21
-173.205080757
  0
LINE
  5
7B
100
AcDbEntity
  8
0
  6
ByLayer
 62
  256
370
   -1
100
AcDbLine
 10
-20.61552812807827
 20
-35.70714214271992
 11
-100
 21
-173.205080757
  0
LINE
  5
7C
100
AcDbEntity
  8
0
  6
ByLayer
 62
  256
370
   -1
100
AcDbLine
 10
41.231056256177
 20
0
 11
200
 21
0
  0
LINE
  5
7D
100
AcDbEntity
  8
0
  6
ByLayer
 62
  256
370
   -1
100
AcDbLine
 10
0
 20
-41.23105625617552
 11
5.684341886080801e-14
 21
-202.1774998813034
  0
CIRCLE
  5
7E
100
AcDbEntity
  8
0
  6
ByLayer
 62
  256
370
   -1
100
AcDbCircle
 10
700.7629394529999
 20
-202.17895507812
 40
200
  0
MTEXT
  5
7F
100
AcDbEntity
  8
0
  6
ByLayer
 62
  256
370
   -1
100
AcDbMText
 10
711.169433594
 20
-248.0651855469
 30
0
 40
10
 41
143.611116253984
 71
    7
 72
    1
  1
Menu Item Goes Here
  7
iso
210
0
220
0
230
1
 50
-59.99999999999999
 73
    2
 44
1
  0
MTEXT
  5
80
100
AcDbEntity
  8
0
  6
ByLayer
 62
  256
370
   -1
100
AcDbMText
 10
737.109375
 20
-241.9616699219
 30
0
 40
10
 41
143.611116253984
 71
    7
 72
    1
  1
Menu Item Goes Here
  7
iso
210
0
220
0
230
1
 50
-30
 73
    2
 44
1
  0
MTEXT
  5
81
100
AcDbEntity
  8
0
  6
ByLayer
 62
  256
370
   -1
100
AcDbMText
 10
750.0793457029999
 20
-216.7846679688
 30
0
 40
10
 41
143.611116253984
 71
    7
 72
    1
  1
Menu Item Goes Here
  7
iso
210
0
220
0
230
1
 50
0
 73
    2
 44
1
  0
MTEXT
  5
82
100
AcDbEntity
  8
0
  6
ByLayer
 62
  256
370
   -1
100
AcDbMText
 10
750.842285156
 20
-194.65942382812
 30
0
 40
10
 41
143.611116253984
 71
    7
 72
    1
  1
Menu Item Goes Here
  7
iso
210
0
220
0
230
1
 50
0
 73
    2
 44
1
  0
MTEXT
  5
83
100
AcDbEntity
  8
0
  6
ByLayer
 62
  256
370
   -1
100
AcDbMText
 10
735.583496094
 20
-167.9565429687
 30
0
 40
10
 41
143.611116253984
 71
    7
 72
    1
  1
Menu Item Goes Here
  7
iso
210
0
220
0
230
1
 50
30
 73
    2
 44
1
  0
MTEXT
  5
84
100
AcDbEntity
  8
0
  6
ByLayer
 62
  256
370
   -1
100
AcDbMText
 10
714.9841308589999
 20
-155.7495117187
 30
0
 40
10
 41
143.611116253984
 71
    7
 72
    1
  1
Menu Item Goes Here
  7
iso
210
0
220
0
230
1
 50
59.99999999999999
 73
    2
 44
1
  0
MTEXT
  5
85
100
AcDbEntity
  8
0
  6
ByLayer
 62
  256
370
   -1
100
AcDbMText
 10
679.8889160159999
 20
-246.5393066406
 30
0
 40
10
 41
143.611116253984
 71
    3
 72
    1
  1
Menu Item Goes Here
  7
iso
210
0
220
0
230
1
 50
59.99999999999999
 73
    2
 44
1
  0
MTEXT
  5
86
100
AcDbEntity
  8
0
  6
ByLayer
 62
  256
370
   -1
100
AcDbMText
 10
662.341308594
 20
-232.0434570313
 30
0
 40
10
 41
143.611116253984
 71
    3
 72
    1
  1
Menu Item Goes Here
  7
iso
210
0
220
0
230
1
 50
30
 73
    2
 44
1
  0
MTEXT
  5
87
100
AcDbEntity
  8
0
  6
ByLayer
 62
  256
370
   -1
100
AcDbMText
 10
649.3713378909999
 20
-209.1552734375
 30
0
 40
10
 41
143.611116253984
 71
    3
 72
    1
  1
Menu Item Goes Here
  7
iso
210
0
220
0
230
1
 50
0
 73
    2
 44
1
  0
MTEXT
  5
88
100
AcDbEntity
  8
0
  6
ByLayer
 62
  256
370
   -1
100
AcDbMText
 10
649.3713378909999
 20
-183.9782714844
 30
0
 40
10
 41
143.611116253984
 71
    3
 72
    1
  1
Menu Item Goes Here
  7
iso
210
0
220
0
230
1
 50
0
 73
    2
 44
1
  0
MTEXT
  5
89
100
AcDbEntity
  8
0
  6
ByLayer
 62
  256
370
   -1
100
AcDbMText
 10
668.444824219
 20
-161.8530273437
 30
0
 40
10
 41
143.611116253984
 71
    3
 72
    1
  1
Menu Item Goes Here
  7
iso
210
0
220
0
230
1
 50
-30
 73
    2
 44
1
  0
MTEXT
  5
8A
100
AcDbEntity
  8
0
  6
ByLayer
 62
  256
370
   -1
100
AcDbMText
 10
692.858886719
 20
-153.4606933594
 30
0
 40
10
 41
143.611116253984
 71
    3
 72
    1
  1
Menu Item Goes Here
  7
iso
210
0
220
0
230
1
 50
-59.99999999999999
 73
    2
 44
1
  0
CIRCLE
  5
8B
100
AcDbEntity
  8
0
  6
ByLayer
 62
  256
370
   -1
100
AcDbCircle
 10
700
 20
-200
 40
41.23105625617661
  0
LINE
  5
8C
100
AcDbEntity
  8
0
  6
ByLayer
 62
  256
370
   -1
100
AcDbLine
 10
664.2928578572808
 20
-220.6155281280778
 11
526.794919243
 21
-300
  0
LINE
  5
8D
100
AcDbEntity
  8
0
  6
ByLayer
 62
  256
370
   -1
100
AcDbLine
 10
500
 20
-200
 11
658.768943743823
 21
-199.9999999999999
  0
LINE
  5
8E
100
AcDbEntity
  8
0
  6
ByLayer
 62
  256
370
   -1
100
AcDbLine
 10
664.2928578572808
 20
-179.3844718719222
 11
526.794919243
 21
-100
  0
LINE
  5
8F
100
AcDbEntity
  8
0
  6
ByLayer
 62
  256
370
   -1
100
AcDbLine
 10
679.3844718719217
 20
-164.2928578572801
 11
600
 21
-26.79491924300001
  0
LINE
  5
90
100
AcDbEntity
  8
0
  6
ByLayer
 62
  256
370
   -1
100
AcDbLine
 10
700
 20
0
 11
700
 21
-158.7689437438223
  0
LINE
  5
91
100
AcDbEntity
  8
0
  6
ByLayer
 62
  256
370
   -1
100
AcDbLine
 10
720.6155281280783
 20
-164.2928578572801
 11
800
 21
-26.79491924300001
  0
LINE
  5
92
100
AcDbEntity
  8
0
  6
ByLayer
 62
  256
370
   -1
100
AcDbLine
 10
735.7071421427195
 20
-179.384471871922
 11
873.205080757
 21
-100
  0
LINE
  5
93
100
AcDbEntity
  8
0
  6
ByLayer
 62
  256
370
   -1
100
AcDbLine
 10
735.7071421427195
 20
-220.615528128078
 11
873.205080757
 21
-300
  0
LINE
  5
94
100
AcDbEntity
  8
0
  6
ByLayer
 62
  256
370
   -1
100
AcDbLine
 10
720.6155281280783
 20
-235.7071421427199
 11
800
 21
-373.205080757
  0
LINE
  5
95
100
AcDbEntity
  8
0
  6
ByLayer
 62
  256
370
   -1
100
AcDbLine
 10
679.3844718719217
 20
-235.7071421427199
 11
600
 21
-373.205080757
  0
LINE
  5
96
100
AcDbEntity
  8
0
  6
ByLayer
 62
  256
370
   -1
100
AcDbLine
 10
741.231056256177
 20
-200
 11
900
 21
-200
  0
LINE
  5
97
100
AcDbEntity
  8
0
  6
ByLayer
 62
  256
370
   -1
100
AcDbLine
 10
700
 20
-241.2310562561755
 11
700
 21
-402.1774998813034
  0
CIRCLE
  5
98
100
AcDbEntity
  8
0
  6
ByLayer
 62
  256
370
   -1
100
AcDbCircle
 10
0
 20
0
 40
20
  0
MTEXT
  5
99
100
AcDbEntity
  8
blue wheel
  6
ByLayer
 62
  256
370
   -1
100
AcDbMText
 10
107.109375
 20
188.0383300781
 30
0
 40
10
 41
143.611116253984
 71
    7
 72
    1
  1
Menu Item Goes Here
  7
iso
210
0
220
0
230
1
 50
-30
 73
    2
 44
1
  0
MTEXT
  5
9A
100
AcDbEntity
  8
blue wheel
  6
ByLayer
 62
  256
370
   -1
100
AcDbMText
 10
120.0793457029999
 20
213.2153320312
 30
0
 40
10
 41
143.611116253984
 71
    7
 72
    1
  1
Menu Item Goes Here
  7
iso
210
0
220
0
230
1
 50
0
 73
    2
 44
1
  0
MTEXT
  5
9B
100
AcDbEntity
  8
blue wheel
  6
ByLayer
 62
  256
370
   -1
100
AcDbMText
 10
120.842285156
 20
235.34057617188
 30
0
 40
10
 41
143.611116253984
 71
    7
 72
    1
  1
Menu Item Goes Here
  7
iso
210
0
220
0
230
1
 50
0
 73
    2
 44
1
  0
MTEXT
  5
9C
100
AcDbEntity
  8
blue wheel
  6
ByLayer
 62
  256
370
   -1
100
AcDbMText
 10
105.583496094
 20
262.0434570313
 30
0
 40
10
 41
143.611116253984
 71
    7
 72
    1
  1
Menu Item Goes Here
  7
iso
210
0
220
0
230
1
 50
30
 73
    2
 44
1
  0
MTEXT
  5
9D
100
AcDbEntity
  8
blue wheel
  6
ByLayer
 62
  256
370
   -1
100
AcDbMText
 10
84.98413085899995
 20
274.2504882813
 30
0
 40
10
 41
143.611116253984
 71
    7
 72
    1
  1
Menu Item Goes Here
  7
iso
210
0
220
0
230
1
 50
59.99999999999999
 73
    2
 44
1
  0
MTEXT
  5
9E
100
AcDbEntity
  8
blue wheel
  6
ByLayer
 62
  256
370
   -1
100
AcDbMText
 10
19.37133789099994
 20
220.8447265625
 30
0
 40
10
 41
143.611116253984
 71
    3
 72
    1
  1
Menu Item Goes Here
  7
iso
210
0
220
0
230
1
 50
0
 73
    2
 44
1
  0
MTEXT
  5
9F
100
AcDbEntity
  8
blue wheel
  6
ByLayer
 62
  256
370
   -1
100
AcDbMText
 10
19.37133789099994
 20
246.0217285156
 30
0
 40
10
 41
143.611116253984
 71
    3
 72
    1
  1
Menu Item Goes Here
  7
iso
210
0
220
0
230
1
 50
0
 73
    2
 44
1
  0
MTEXT
  5
A0
100
AcDbEntity
  8
blue wheel
  6
ByLayer
 62
  256
370
   -1
100
AcDbMText
 10
38.444824219
 20
268.1469726563
 30
0
 40
10
 41
143.611116253984
 71
    3
 72
    1
  1
Menu Item Goes Here
  7
iso
210
0
220
0
230
1
 50
-30
 73
    2
 44
1
  0
MTEXT
  5
A1
100
AcDbEntity
  8
blue wheel
  6
ByLayer
 62
  256
370
   -1
100
AcDbMText
 10
62.858886719
 20
276.5393066406
 30
0
 40
10
 41
143.611116253984
 71
    3
 72
    1
  1
Menu Item Goes Here
  7
iso
210
0
220
0
230
1
 50
-59.99999999999999
 73
    2
 44
1
  0
LINE
  5
A2
100
AcDbEntity
  8
blue wheel
  6
ByLayer
 62
  256
370
   -1
100
AcDbLine
 10
-130
 20
230
 11
28.768943743823
 21
230.0000000000001
  0
LINE
  5
A3
100
AcDbEntity
  8
blue wheel
  6
ByLayer
 62
  256
370
   -1
100
AcDbLine
 10
34.29285785728075
 20
250.6155281280778
 11
-103.205080757
 21
330
  0
LINE
  5
A4
100
AcDbEntity
  8
blue wheel
  6
ByLayer
 62
  256
370
   -1
100
AcDbLine
 10
49.38447187192173
 20
265.7071421427199
 11
-30
 21
403.205080757
  0
LINE
  5
A5
100
AcDbEntity
  8
blue wheel
  6
ByLayer
 62
  256
370
   -1
100
AcDbLine
 10
70
 20
430
 11
70
 21
271.2310562561777
  0
LINE
  5
A6
100
AcDbEntity
  8
blue wheel
  6
ByLayer
 62
  256
370
   -1
100
AcDbLine
 10
90.61552812807827
 20
265.7071421427199
 11
170
 21
403.205080757
  0
LINE
  5
A7
100
AcDbEntity
  8
blue wheel
  6
ByLayer
 62
  256
370
   -1
100
AcDbLine
 10
105.7071421427195
 20
250.615528128078
 11
243.205080757
 21
330
  0
LINE
  5
A8
100
AcDbEntity
  8
blue wheel
  6
ByLayer
 62
  256
370
   -1
100
AcDbLine
 10
105.7071421427195
 20
209.384471871922
 11
243.205080757
 21
130
  0
LINE
  5
A9
100
AcDbEntity
  8
blue wheel
  6
ByLayer
 62
  256
370
   -1
100
AcDbLine
 10
111.231056256177
 20
230
 11
270
 21
230
  0
ARC
  5
AA
100
AcDbEntity
  8
blue wheel
  6
ByLayer
 62
  256
370
   -1
100
AcDbCircle
 10
70.76293945299994
 20
227.82104492188
 40
200
100
AcDbArc
 50
306.1280136373919
 51
200.016960234314
  0
LINE
  5
AB
100
AcDbEntity
  8
blue wheel
  6
ByLayer
 62
  256
370
   -1
100
AcDbLine
 10
90.61552812807827
 20
194.2928578572801
 11
105.7766431148293
 21
168.0330364008164
  0
LINE
  5
AC
100
AcDbEntity
  8
blue wheel
  6
ByLayer
 62
  256
370
   -1
100
AcDbLine
 10
34.29285785728075
 20
209.3844718719222
 11
13.55510848204507
 21
197.4115266877506
  0
LINE
  5
AD
100
AcDbEntity
  8
arrow
  6
ByLayer
 62
  256
370
   -1
100
AcDbLine
 10
70
 20
230
 11
-50
 21
160
  0
LINE
  5
AE
100
AcDbEntity
  8
arrow
  6
ByLayer
 62
  256
370
   -1
100
AcDbLine
 10
-50
 20
160
 11
0
 21
150
  0
LINE
  5
AF
100
AcDbEntity
  8
arrow
  6
ByLayer
 62
  256
370
   -1
100
AcDbLine
 10
70
 20
230
 11
130
 21
120
  0
LINE
  5
B0
100
AcDbEntity
  8
0
  6
ByLayer
 62
  256
370
   -1
100
AcDbLine
 10
0
 20
150
 11
0
 21
41.23105625617768
  0
LINE
  5
B1
100
AcDbEntity
  8
0
  6
ByLayer
 62
  256
370
   -1
100
AcDbLine
 10
20.61552812807827
 20
35.70714214271993
 11
74.61176746351923
 21
129.2313720894135
  0
ARC
  5
B2
100
AcDbEntity
  8
arrow
  6
ByLayer
 62
  256
370
   -1
100
AcDbCircle
 10
0.7629394530000013
 20
-2.17895507812
 40
200
100
AcDbArc
 50
86.18335862781801
 51
59.3150370491776
  0
ARC
  5
B3
100
AcDbEntity
  8
blue wheel
  6
ByLayer
 62
  256
370
   -1
100
AcDbCircle
 10
70
 20
230
 40
41.23105625617661
100
AcDbArc
 50
298.6104596659651
 51
210.2564371635293
  0
LINE
  5
B4
100
AcDbEntity
  8
arrow
  6
ByLayer
 62
  256
370
   -1
100
AcDbLine
 10
130
 20
120
 11
74.61176746351923
 21
129.2313720894135
  0
LINE
  5
B5
100
AcDbEntity
  8
0
  6
ByLayer
 62
  256
370
   -1
100
AcDbLine
 10
700
 20
-10
 11
700
 21
200
  0
LINE
  5
B6
100
AcDbEntity
  8
0
  6
ByLayer
 62
  256
370
   -1
100
AcDbLine
 10
799.2433905532821
 20
-28.10540524620281
 11
899.2433905532821
 21
145.0996755106849
  0
LINE
  5
B7
100
AcDbEntity
  8
0
  6
ByLayer
 62
  256
370
   -1
100
AcDbLine
 10
750
 20
-10
 11
801.7638090205041
 21
183.1851652578137
  0
LINE
  5
B8
100
AcDbEntity
  8
0
  6
ByLayer
 62
  256
370
   -1
100
AcDbLine
 10
100
 20
-400
 11
360
 21
-400
  0
MTEXT
  5
B9
100
AcDbEntity
  8
0
  6
ByLayer
 62
  256
370
   -1
100
AcDbMText
 10
110
 20
-390
 30
0
 40
20
 41
287.222232507968
 71
    7
 72
    1
  1
Menu Item Goes Here
  7
iso
210
0
220
0
230
1
 50
0
 73
    2
 44
1
  0
LINE
  5
BA
100
AcDbEntity
  8
dashed
  6
ByLayer
 62
  256
370
   -1
100
AcDbLine
 10
100
 20
-400
 11
100
 21
-360
  0
LINE
  5
BB
100
AcDbEntity
  8
dashed
  6
ByLayer
 62
  256
370
   -1
100
AcDbLine
 10
100
 20
-360
 11
360
 21
-360
  0
LINE
  5
BC
100
AcDbEntity
  8
dashed
  6
ByLayer
 62
  256
370
   -1
100
AcDbLine
 10
0
 20
-400
 11
280
 21
-290
  0
LINE
  5
BD
100
AcDbEntity
  8
dashed
  6
ByLayer
 62
  256
370
   -1
100
AcDbLine
 10
0
 20
-400
 11
150
 21
-400
  0
LINE
  5
BE
100
AcDbEntity
  8
0
  6
ByLayer
 62
  256
370
   -1
100
AcDbLine
 10
360
 20
-400
 11
450
 21
-400
  0
LINE
  5
BF
100
AcDbEntity
  8
dashed
  6
ByLayer
 62
  256
370
   -1
100
AcDbLine
 10
360
 20
-360
 11
450
 21
-360
  0
LINE
  5
C0
100
AcDbEntity
  8
dashed
  6
ByLayer
 62
  256
370
   -1
100
AcDbLine
 10
450
 20
-360
 11
450
 21
-400
  0
DIMENSION
  5
C1
100
AcDbEntity
  8
green dimensions
  6
ByLayer
 62
  256
370
   -1
100
AcDbDimension
  2
*D1
 10
450
 20
-420
 30
0
 11
275
 21
-417.475
 31
0
 70
   32
 71
    5
  3
Standard
 53
0
210
0
220
0
230
1
100
AcDbAlignedDimension
 13
100
 23
-400
 33
0
 14
450
 24
-400
 34
0
100
AcDbRotatedDimension
  0
MTEXT
  5
C2
100
AcDbEntity
  8
0
  6
ByLayer
 62
  256
370
   -1
100
AcDbMText
 10
50
 20
-410
 30
0
 40
10
 41
87.50000292065116
 71
    2
 72
    1
  1
r1\P(inner radius)
  7
iso
210
0
220
0
230
1
 50
0
 73
    2
 44
1
  0
MTEXT
  5
C3
100
AcDbEntity
  8
0
  6
ByLayer
 62
  256
370
   -1
100
AcDbMText
 10
280
 20
-430
 30
0
 40
10
 41
151.6666644444463
 71
    2
 72
    1
  1
(table optimizer value)
  7
iso
210
0
220
0
230
1
 50
0
 73
    2
 44
1
  0
LEADER
  5
C4
100
AcDbEntity
  8
green dimensions
  6
ByLayer
 62
  256
370
   -1
100
AcDbLeader
  3
Standard
 71
    1
 72
    0
 73
    3
 74
    0
 75
    0
 40
1
 41
10
 76
3
 76
3
 10
110
 20
-370
 30
0
 10
90
 20
-350
 30
0
 10
40
 20
-350
 30
0
  0
MTEXT
  5
C5
100
AcDbEntity
  8
green dimensions
  6
ByLayer
 62
  256
370
   -1
100
AcDbMText
 10
48.10947204957544
 20
-348.4006211171869
 30
0
 40
7
 41
21
 71
    7
 72
    1
  1
pivot
  7
iso
210
0
220
0
230
1
 50
0
 73
    2
 44
1
  0
ARC
  5
C6
100
AcDbEntity
  8
green dimensions
  6
ByLayer
 62
  256
370
   -1
100
AcDbCircle
 10
0
 20
-400
 40
41.23105625617661
100
AcDbArc
 50
0
 51
21.49159496902695
  0
LEADER
  5
C7
100
AcDbEntity
  8
green dimensions
  6
ByLayer
 62
  256
370
   -1
100
AcDbLeader
  3
Standard
 71
    1
 72
    0
 73
    3
 74
    0
 75
    0
 40
1
 41
10
 76
3
 76
3
 10
39.84596273282494
 20
-392.221118011494
 30
0
 10
30
 20
-380
 30
0
 10
0
 20
-380
 30
0
  0
MTEXT
  5
C8
100
AcDbEntity
  8
green dimensions
  6
ByLayer
 62
  256
370
   -1
100
AcDbMText
 10
30
 20
-380
 30
0
 40
7
 41
28.54444444444477
 71
    9
 72
    1
  1
2*pi/n
  7
iso
210
0
220
0
230
1
 50
0
 73
    2
 44
1
  0
ENDSEC
  0
SECTION
  2
OBJECTS
  0
DICTIONARY
  5
C
330
0
100
AcDbDictionary
281
    1
  3
ACAD_GROUP
350
D
  0
DICTIONARY
  5
D
330
C
100
AcDbDictionary
281
    1
  0
ENDSEC
  0
EOF
